<mxfile host="Electron" modified="2024-02-19T06:05:33.262Z" agent="Mozilla/5.0 (Windows NT 10.0; Win64; x64) AppleWebKit/537.36 (KHTML, like Gecko) draw.io/22.1.16 Chrome/120.0.6099.109 Electron/28.1.0 Safari/537.36" etag="n-LVZKvv-thJNf-u7Omw" version="22.1.16" type="device">
  <diagram id="C5RBs43oDa-KdzZeNtuy" name="Page-1">
    <mxGraphModel dx="864" dy="508" grid="0" gridSize="10" guides="1" tooltips="1" connect="1" arrows="1" fold="1" page="1" pageScale="1" pageWidth="827" pageHeight="1169" math="0" shadow="0">
      <root>
        <mxCell id="WIyWlLk6GJQsqaUBKTNV-0" />
        <mxCell id="WIyWlLk6GJQsqaUBKTNV-1" parent="WIyWlLk6GJQsqaUBKTNV-0" />
        <mxCell id="86FwZAQYS3h-tKqfAoDZ-44" value="&lt;p style=&quot;margin:0px;margin-top:4px;text-align:center;&quot;&gt;&lt;i&gt;&amp;lt;&amp;lt;Abstract&amp;gt;&amp;gt;&lt;/i&gt;&lt;br&gt;&lt;b&gt;PublicacioBase&lt;/b&gt;&lt;/p&gt;&lt;hr size=&quot;1&quot;&gt;&lt;p style=&quot;margin:0px;margin-left:4px;&quot;&gt;+ titol: String&lt;br&gt;+ anyPublicacio: int&lt;br&gt;&lt;/p&gt;&lt;p style=&quot;margin:0px;margin-left:4px;&quot;&gt;+ preu. double&lt;/p&gt;&lt;hr size=&quot;1&quot;&gt;&lt;p style=&quot;margin:0px;margin-left:4px;&quot;&gt;+ toString(): String&lt;/p&gt;" style="verticalAlign=top;align=left;overflow=fill;fontSize=12;fontFamily=Helvetica;html=1;whiteSpace=wrap;" parent="WIyWlLk6GJQsqaUBKTNV-1" vertex="1">
          <mxGeometry x="227" y="163" width="313" height="122" as="geometry" />
        </mxCell>
        <mxCell id="86FwZAQYS3h-tKqfAoDZ-46" value="&lt;p style=&quot;margin:0px;margin-top:4px;text-align:center;&quot;&gt;&lt;i&gt;&amp;lt;&amp;lt;Interface&amp;gt;&amp;gt;&lt;/i&gt;&lt;br&gt;&lt;b&gt;Publicacio&lt;/b&gt;&lt;/p&gt;&lt;hr size=&quot;1&quot;&gt;&lt;p style=&quot;margin:0px;margin-left:4px;&quot;&gt;&lt;br&gt;&lt;/p&gt;&lt;hr size=&quot;1&quot;&gt;&lt;p style=&quot;margin:0px;margin-left:4px;&quot;&gt;&lt;i style=&quot;border-color: var(--border-color);&quot;&gt;&lt;b style=&quot;border-color: var(--border-color);&quot;&gt;+ calculaPreu(): double&lt;/b&gt;&lt;/i&gt;&lt;/p&gt;" style="verticalAlign=top;align=left;overflow=fill;fontSize=12;fontFamily=Helvetica;html=1;whiteSpace=wrap;" parent="WIyWlLk6GJQsqaUBKTNV-1" vertex="1">
          <mxGeometry x="227" y="20" width="312" height="94" as="geometry" />
        </mxCell>
        <mxCell id="bvmOk3qDwSl6TVnSMoPc-3" value="Revista" style="swimlane;fontStyle=0;align=center;verticalAlign=top;childLayout=stackLayout;horizontal=1;startSize=26;horizontalStack=0;resizeParent=1;resizeLast=0;collapsible=1;marginBottom=0;rounded=0;shadow=0;strokeWidth=1;" parent="WIyWlLk6GJQsqaUBKTNV-1" vertex="1">
          <mxGeometry x="388" y="345" width="184" height="96" as="geometry">
            <mxRectangle x="130" y="380" width="160" height="26" as="alternateBounds" />
          </mxGeometry>
        </mxCell>
        <mxCell id="bvmOk3qDwSl6TVnSMoPc-4" value="+ numeroEdicio: int" style="text;align=left;verticalAlign=top;spacingLeft=4;spacingRight=4;overflow=hidden;rotatable=0;points=[[0,0.5],[1,0.5]];portConstraint=eastwest;" parent="bvmOk3qDwSl6TVnSMoPc-3" vertex="1">
          <mxGeometry y="26" width="184" height="29" as="geometry" />
        </mxCell>
        <mxCell id="bvmOk3qDwSl6TVnSMoPc-5" value="" style="line;html=1;strokeWidth=1;align=left;verticalAlign=middle;spacingTop=-1;spacingLeft=3;spacingRight=3;rotatable=0;labelPosition=right;points=[];portConstraint=eastwest;" parent="bvmOk3qDwSl6TVnSMoPc-3" vertex="1">
          <mxGeometry y="55" width="184" height="6" as="geometry" />
        </mxCell>
        <mxCell id="V21flKf6waBubNrhIwYf-6" value="&amp;nbsp;+ toString(): String" style="text;html=1;align=left;verticalAlign=middle;resizable=0;points=[];autosize=1;strokeColor=none;fillColor=none;" parent="bvmOk3qDwSl6TVnSMoPc-3" vertex="1">
          <mxGeometry y="61" width="184" height="26" as="geometry" />
        </mxCell>
        <mxCell id="bvmOk3qDwSl6TVnSMoPc-8" value="Llibre" style="swimlane;fontStyle=0;align=center;verticalAlign=top;childLayout=stackLayout;horizontal=1;startSize=26;horizontalStack=0;resizeParent=1;resizeLast=0;collapsible=1;marginBottom=0;rounded=0;shadow=0;strokeWidth=1;" parent="WIyWlLk6GJQsqaUBKTNV-1" vertex="1">
          <mxGeometry x="183" y="345" width="177" height="99" as="geometry">
            <mxRectangle x="130" y="380" width="160" height="26" as="alternateBounds" />
          </mxGeometry>
        </mxCell>
        <mxCell id="bvmOk3qDwSl6TVnSMoPc-9" value="+ autor: String" style="text;align=left;verticalAlign=top;spacingLeft=4;spacingRight=4;overflow=hidden;rotatable=0;points=[[0,0.5],[1,0.5]];portConstraint=eastwest;" parent="bvmOk3qDwSl6TVnSMoPc-8" vertex="1">
          <mxGeometry y="26" width="177" height="27" as="geometry" />
        </mxCell>
        <mxCell id="bvmOk3qDwSl6TVnSMoPc-10" value="" style="line;html=1;strokeWidth=1;align=left;verticalAlign=middle;spacingTop=-1;spacingLeft=3;spacingRight=3;rotatable=0;labelPosition=right;points=[];portConstraint=eastwest;" parent="bvmOk3qDwSl6TVnSMoPc-8" vertex="1">
          <mxGeometry y="53" width="177" height="6" as="geometry" />
        </mxCell>
        <mxCell id="V21flKf6waBubNrhIwYf-4" value="&amp;nbsp;+ toString(): String" style="text;html=1;align=left;verticalAlign=middle;resizable=0;points=[];autosize=1;strokeColor=none;fillColor=none;" parent="bvmOk3qDwSl6TVnSMoPc-8" vertex="1">
          <mxGeometry y="59" width="177" height="26" as="geometry" />
        </mxCell>
        <mxCell id="hUi37XDG6ujM-PKvGVcT-0" value="" style="endArrow=block;dashed=1;endFill=0;endSize=12;html=1;rounded=0;exitX=0.5;exitY=0;exitDx=0;exitDy=0;entryX=0.5;entryY=1;entryDx=0;entryDy=0;" parent="WIyWlLk6GJQsqaUBKTNV-1" source="86FwZAQYS3h-tKqfAoDZ-44" target="86FwZAQYS3h-tKqfAoDZ-46" edge="1">
          <mxGeometry width="160" relative="1" as="geometry">
            <mxPoint x="332" y="273" as="sourcePoint" />
            <mxPoint x="492" y="273" as="targetPoint" />
          </mxGeometry>
        </mxCell>
        <mxCell id="hUi37XDG6ujM-PKvGVcT-1" value="Extends" style="endArrow=block;endSize=16;endFill=0;html=1;rounded=0;exitX=0.5;exitY=0;exitDx=0;exitDy=0;entryX=0.25;entryY=1;entryDx=0;entryDy=0;" parent="WIyWlLk6GJQsqaUBKTNV-1" source="bvmOk3qDwSl6TVnSMoPc-8" target="86FwZAQYS3h-tKqfAoDZ-44" edge="1">
          <mxGeometry width="160" relative="1" as="geometry">
            <mxPoint x="332" y="273" as="sourcePoint" />
            <mxPoint x="492" y="273" as="targetPoint" />
          </mxGeometry>
        </mxCell>
        <mxCell id="hUi37XDG6ujM-PKvGVcT-2" value="Extends" style="endArrow=block;endSize=16;endFill=0;html=1;rounded=0;exitX=0.5;exitY=0;exitDx=0;exitDy=0;entryX=0.75;entryY=1;entryDx=0;entryDy=0;" parent="WIyWlLk6GJQsqaUBKTNV-1" source="bvmOk3qDwSl6TVnSMoPc-3" target="86FwZAQYS3h-tKqfAoDZ-44" edge="1">
          <mxGeometry width="160" relative="1" as="geometry">
            <mxPoint x="282" y="355" as="sourcePoint" />
            <mxPoint x="315" y="273" as="targetPoint" />
          </mxGeometry>
        </mxCell>
      </root>
    </mxGraphModel>
  </diagram>
</mxfile>
